<mxfile host="app.diagrams.net" agent="Mozilla/5.0 (X11; Linux x86_64; rv:135.0) Gecko/20100101 Firefox/135.0" version="26.0.16">
  <diagram name="Page-1" id="9MPk2OMMetis38LG8JOn">
    <mxGraphModel dx="595" dy="390" grid="1" gridSize="10" guides="1" tooltips="1" connect="1" arrows="1" fold="1" page="0" pageScale="1" pageWidth="850" pageHeight="1100" math="0" shadow="0">
      <root>
        <mxCell id="0" />
        <mxCell id="1" parent="0" />
        <mxCell id="EK5eT8r6OQ1-qDXLQgK1-2" value="" style="swimlane;startSize=0;horizontal=0;" vertex="1" parent="1">
          <mxGeometry x="80" y="200" width="1360" height="880" as="geometry" />
        </mxCell>
        <mxCell id="EK5eT8r6OQ1-qDXLQgK1-8" value="" style="swimlane;startSize=0;" vertex="1" parent="EK5eT8r6OQ1-qDXLQgK1-2">
          <mxGeometry x="360" y="840" width="360" height="40" as="geometry" />
        </mxCell>
        <mxCell id="EK5eT8r6OQ1-qDXLQgK1-42" value="3" style="rounded=1;whiteSpace=wrap;html=1;" vertex="1" parent="EK5eT8r6OQ1-qDXLQgK1-8">
          <mxGeometry x="137" y="4.5" width="30" height="30" as="geometry" />
        </mxCell>
        <mxCell id="EK5eT8r6OQ1-qDXLQgK1-43" value="" style="endArrow=none;html=1;rounded=0;" edge="1" parent="EK5eT8r6OQ1-qDXLQgK1-8">
          <mxGeometry width="50" height="50" relative="1" as="geometry">
            <mxPoint x="173" y="33.5" as="sourcePoint" />
            <mxPoint x="189" y="5.5" as="targetPoint" />
          </mxGeometry>
        </mxCell>
        <mxCell id="EK5eT8r6OQ1-qDXLQgK1-44" value="123" style="text;html=1;align=center;verticalAlign=middle;whiteSpace=wrap;rounded=0;" vertex="1" parent="EK5eT8r6OQ1-qDXLQgK1-8">
          <mxGeometry x="187" y="5.5" width="36" height="30" as="geometry" />
        </mxCell>
        <mxCell id="EK5eT8r6OQ1-qDXLQgK1-48" value="" style="html=1;shadow=0;dashed=0;align=center;verticalAlign=middle;shape=mxgraph.arrows2.arrow;dy=0;dx=30;notch=30;" vertex="1" parent="EK5eT8r6OQ1-qDXLQgK1-8">
          <mxGeometry x="296" y="10" width="10" height="20" as="geometry" />
        </mxCell>
        <mxCell id="EK5eT8r6OQ1-qDXLQgK1-55" value="" style="html=1;shadow=0;dashed=0;align=center;verticalAlign=middle;shape=mxgraph.arrows2.arrow;dy=0;dx=30;notch=30;" vertex="1" parent="EK5eT8r6OQ1-qDXLQgK1-8">
          <mxGeometry x="341" y="10" width="10" height="20" as="geometry" />
        </mxCell>
        <mxCell id="EK5eT8r6OQ1-qDXLQgK1-54" value="" style="html=1;shadow=0;dashed=0;align=center;verticalAlign=middle;shape=mxgraph.arrows2.arrow;dy=0;dx=30;notch=30;" vertex="1" parent="EK5eT8r6OQ1-qDXLQgK1-8">
          <mxGeometry x="331" y="10" width="10" height="20" as="geometry" />
        </mxCell>
        <mxCell id="EK5eT8r6OQ1-qDXLQgK1-56" value="" style="html=1;shadow=0;dashed=0;align=center;verticalAlign=middle;shape=mxgraph.arrows2.arrow;dy=0;dx=30;notch=30;horizontal=0;rotation=180;" vertex="1" parent="EK5eT8r6OQ1-qDXLQgK1-8">
          <mxGeometry x="20" y="10" width="10" height="20" as="geometry" />
        </mxCell>
        <mxCell id="EK5eT8r6OQ1-qDXLQgK1-57" value="" style="html=1;shadow=0;dashed=0;align=center;verticalAlign=middle;shape=mxgraph.arrows2.arrow;dy=0;dx=30;notch=30;horizontal=0;rotation=180;" vertex="1" parent="EK5eT8r6OQ1-qDXLQgK1-8">
          <mxGeometry x="10" y="10" width="10" height="20" as="geometry" />
        </mxCell>
        <mxCell id="EK5eT8r6OQ1-qDXLQgK1-58" value="" style="html=1;shadow=0;dashed=0;align=center;verticalAlign=middle;shape=mxgraph.arrows2.arrow;dy=0;dx=30;notch=30;rotation=180;" vertex="1" parent="EK5eT8r6OQ1-qDXLQgK1-8">
          <mxGeometry x="55" y="10" width="10" height="20" as="geometry" />
        </mxCell>
        <mxCell id="EK5eT8r6OQ1-qDXLQgK1-10" value="" style="swimlane;startSize=0;" vertex="1" parent="EK5eT8r6OQ1-qDXLQgK1-2">
          <mxGeometry x="360" y="40" width="360" height="800" as="geometry" />
        </mxCell>
        <mxCell id="EK5eT8r6OQ1-qDXLQgK1-16" value="&lt;div align=&quot;left&quot;&gt;Search&lt;/div&gt;" style="rounded=0;whiteSpace=wrap;html=1;align=left;" vertex="1" parent="EK5eT8r6OQ1-qDXLQgK1-10">
          <mxGeometry width="320" height="40" as="geometry" />
        </mxCell>
        <mxCell id="EK5eT8r6OQ1-qDXLQgK1-62" value="" style="rounded=0;whiteSpace=wrap;html=1;" vertex="1" parent="EK5eT8r6OQ1-qDXLQgK1-10">
          <mxGeometry x="320" y="40" width="40" height="760" as="geometry" />
        </mxCell>
        <mxCell id="EK5eT8r6OQ1-qDXLQgK1-63" value="" style="rounded=1;whiteSpace=wrap;html=1;" vertex="1" parent="EK5eT8r6OQ1-qDXLQgK1-10">
          <mxGeometry x="325" y="70" width="30" height="100" as="geometry" />
        </mxCell>
        <mxCell id="EK5eT8r6OQ1-qDXLQgK1-65" value="" style="endArrow=none;html=1;rounded=0;" edge="1" parent="EK5eT8r6OQ1-qDXLQgK1-10">
          <mxGeometry width="50" height="50" relative="1" as="geometry">
            <mxPoint x="332" y="90" as="sourcePoint" />
            <mxPoint x="348" y="90" as="targetPoint" />
            <Array as="points">
              <mxPoint x="336" y="90" />
            </Array>
          </mxGeometry>
        </mxCell>
        <mxCell id="EK5eT8r6OQ1-qDXLQgK1-66" value="" style="endArrow=none;html=1;rounded=0;" edge="1" parent="EK5eT8r6OQ1-qDXLQgK1-10">
          <mxGeometry width="50" height="50" relative="1" as="geometry">
            <mxPoint x="332" y="100" as="sourcePoint" />
            <mxPoint x="348" y="100" as="targetPoint" />
            <Array as="points">
              <mxPoint x="336" y="100" />
            </Array>
          </mxGeometry>
        </mxCell>
        <mxCell id="EK5eT8r6OQ1-qDXLQgK1-68" value="" style="endArrow=none;html=1;rounded=0;" edge="1" parent="EK5eT8r6OQ1-qDXLQgK1-10">
          <mxGeometry width="50" height="50" relative="1" as="geometry">
            <mxPoint x="332" y="110" as="sourcePoint" />
            <mxPoint x="348" y="110" as="targetPoint" />
            <Array as="points">
              <mxPoint x="336" y="110" />
            </Array>
          </mxGeometry>
        </mxCell>
        <mxCell id="EK5eT8r6OQ1-qDXLQgK1-69" value="" style="endArrow=none;html=1;rounded=0;" edge="1" parent="EK5eT8r6OQ1-qDXLQgK1-10">
          <mxGeometry width="50" height="50" relative="1" as="geometry">
            <mxPoint x="332" y="120" as="sourcePoint" />
            <mxPoint x="348" y="120" as="targetPoint" />
            <Array as="points">
              <mxPoint x="336" y="120" />
            </Array>
          </mxGeometry>
        </mxCell>
        <mxCell id="EK5eT8r6OQ1-qDXLQgK1-70" value="" style="endArrow=none;html=1;rounded=0;" edge="1" parent="EK5eT8r6OQ1-qDXLQgK1-10">
          <mxGeometry width="50" height="50" relative="1" as="geometry">
            <mxPoint x="332" y="130" as="sourcePoint" />
            <mxPoint x="348" y="130" as="targetPoint" />
            <Array as="points">
              <mxPoint x="336" y="130" />
            </Array>
          </mxGeometry>
        </mxCell>
        <mxCell id="EK5eT8r6OQ1-qDXLQgK1-71" value="" style="endArrow=none;html=1;rounded=0;" edge="1" parent="EK5eT8r6OQ1-qDXLQgK1-10">
          <mxGeometry width="50" height="50" relative="1" as="geometry">
            <mxPoint x="332" y="140" as="sourcePoint" />
            <mxPoint x="348" y="140" as="targetPoint" />
            <Array as="points">
              <mxPoint x="336" y="140" />
            </Array>
          </mxGeometry>
        </mxCell>
        <mxCell id="EK5eT8r6OQ1-qDXLQgK1-72" value="" style="endArrow=none;html=1;rounded=0;" edge="1" parent="EK5eT8r6OQ1-qDXLQgK1-10">
          <mxGeometry width="50" height="50" relative="1" as="geometry">
            <mxPoint x="332" y="150" as="sourcePoint" />
            <mxPoint x="348" y="150" as="targetPoint" />
            <Array as="points">
              <mxPoint x="336" y="150" />
            </Array>
          </mxGeometry>
        </mxCell>
        <mxCell id="EK5eT8r6OQ1-qDXLQgK1-73" value="" style="endArrow=none;html=1;rounded=0;" edge="1" parent="EK5eT8r6OQ1-qDXLQgK1-10">
          <mxGeometry width="50" height="50" relative="1" as="geometry">
            <mxPoint x="332" y="160" as="sourcePoint" />
            <mxPoint x="348" y="160" as="targetPoint" />
            <Array as="points">
              <mxPoint x="336" y="160" />
            </Array>
          </mxGeometry>
        </mxCell>
        <mxCell id="EK5eT8r6OQ1-qDXLQgK1-74" value="" style="endArrow=none;html=1;rounded=0;" edge="1" parent="EK5eT8r6OQ1-qDXLQgK1-10">
          <mxGeometry width="50" height="50" relative="1" as="geometry">
            <mxPoint x="332" y="80" as="sourcePoint" />
            <mxPoint x="348" y="80" as="targetPoint" />
            <Array as="points">
              <mxPoint x="336" y="80" />
              <mxPoint x="340" y="80" />
            </Array>
          </mxGeometry>
        </mxCell>
        <mxCell id="EK5eT8r6OQ1-qDXLQgK1-17" value="" style="rounded=0;whiteSpace=wrap;html=1;" vertex="1" parent="EK5eT8r6OQ1-qDXLQgK1-2">
          <mxGeometry x="360" y="80" width="320" height="80" as="geometry" />
        </mxCell>
        <mxCell id="EK5eT8r6OQ1-qDXLQgK1-25" value="boss@email.com" style="rounded=0;whiteSpace=wrap;html=1;" vertex="1" parent="EK5eT8r6OQ1-qDXLQgK1-2">
          <mxGeometry x="370" y="90" width="120" height="20" as="geometry" />
        </mxCell>
        <mxCell id="EK5eT8r6OQ1-qDXLQgK1-26" value="2025-07-20" style="rounded=0;whiteSpace=wrap;html=1;" vertex="1" parent="EK5eT8r6OQ1-qDXLQgK1-2">
          <mxGeometry x="580" y="90" width="90" height="20" as="geometry" />
        </mxCell>
        <mxCell id="EK5eT8r6OQ1-qDXLQgK1-27" value="Something very important about work and stuff..." style="rounded=0;whiteSpace=wrap;html=1;align=left;" vertex="1" parent="EK5eT8r6OQ1-qDXLQgK1-2">
          <mxGeometry x="370" y="120" width="300" height="30" as="geometry" />
        </mxCell>
        <mxCell id="EK5eT8r6OQ1-qDXLQgK1-29" value="Inbox" style="rounded=1;whiteSpace=wrap;html=1;align=left;" vertex="1" parent="EK5eT8r6OQ1-qDXLQgK1-2">
          <mxGeometry x="110" y="90" width="240" height="50" as="geometry" />
        </mxCell>
        <mxCell id="EK5eT8r6OQ1-qDXLQgK1-31" value="&lt;div&gt;Drafts&lt;/div&gt;" style="rounded=1;whiteSpace=wrap;html=1;align=left;" vertex="1" parent="EK5eT8r6OQ1-qDXLQgK1-2">
          <mxGeometry x="110" y="140" width="240" height="50" as="geometry" />
        </mxCell>
        <mxCell id="EK5eT8r6OQ1-qDXLQgK1-32" value="Sent" style="rounded=1;whiteSpace=wrap;html=1;align=left;" vertex="1" parent="EK5eT8r6OQ1-qDXLQgK1-2">
          <mxGeometry x="110" y="190" width="240" height="50" as="geometry" />
        </mxCell>
        <mxCell id="EK5eT8r6OQ1-qDXLQgK1-33" value="Uni (custom folder)" style="rounded=1;whiteSpace=wrap;html=1;align=left;" vertex="1" parent="EK5eT8r6OQ1-qDXLQgK1-2">
          <mxGeometry x="110" y="240" width="240" height="50" as="geometry" />
        </mxCell>
        <mxCell id="EK5eT8r6OQ1-qDXLQgK1-34" value="&lt;div&gt;Work(custom folder)&lt;/div&gt;" style="rounded=1;whiteSpace=wrap;html=1;align=left;" vertex="1" parent="EK5eT8r6OQ1-qDXLQgK1-2">
          <mxGeometry x="110" y="290" width="240" height="50" as="geometry" />
        </mxCell>
        <mxCell id="EK5eT8r6OQ1-qDXLQgK1-60" value="" style="rounded=0;whiteSpace=wrap;html=1;" vertex="1" parent="EK5eT8r6OQ1-qDXLQgK1-2">
          <mxGeometry x="680" y="40" width="40" height="40" as="geometry" />
        </mxCell>
        <mxCell id="EK5eT8r6OQ1-qDXLQgK1-75" value="" style="swimlane;startSize=0;" vertex="1" parent="EK5eT8r6OQ1-qDXLQgK1-2">
          <mxGeometry x="720" y="40" width="640" height="40" as="geometry" />
        </mxCell>
        <mxCell id="EK5eT8r6OQ1-qDXLQgK1-76" value="Something very important about work and stuff and stuff and stuff" style="text;html=1;align=left;verticalAlign=middle;whiteSpace=wrap;rounded=0;fontSize=26;" vertex="1" parent="EK5eT8r6OQ1-qDXLQgK1-2">
          <mxGeometry x="740" y="100" width="610" height="60" as="geometry" />
        </mxCell>
        <mxCell id="EK5eT8r6OQ1-qDXLQgK1-81" value="" style="sketch=0;outlineConnect=0;fontColor=#232F3E;gradientColor=none;fillColor=#232F3D;strokeColor=none;dashed=0;verticalLabelPosition=bottom;verticalAlign=top;align=center;html=1;fontSize=12;fontStyle=0;aspect=fixed;pointerEvents=1;shape=mxgraph.aws4.user;" vertex="1" parent="EK5eT8r6OQ1-qDXLQgK1-2">
          <mxGeometry x="750" y="180" width="50" height="50" as="geometry" />
        </mxCell>
        <mxCell id="EK5eT8r6OQ1-qDXLQgK1-4" value="" style="swimlane;startSize=0;" vertex="1" parent="1">
          <mxGeometry x="80" y="200" width="1360" height="40" as="geometry" />
        </mxCell>
        <mxCell id="EK5eT8r6OQ1-qDXLQgK1-3" value="" style="swimlane;startSize=0;" vertex="1" parent="1">
          <mxGeometry x="80" y="240" width="100" height="840" as="geometry" />
        </mxCell>
        <mxCell id="EK5eT8r6OQ1-qDXLQgK1-13" value="Compose" style="rounded=1;whiteSpace=wrap;html=1;" vertex="1" parent="EK5eT8r6OQ1-qDXLQgK1-3">
          <mxGeometry x="10" y="20" width="80" height="60" as="geometry" />
        </mxCell>
        <mxCell id="EK5eT8r6OQ1-qDXLQgK1-14" value="&lt;div&gt;View Mail&lt;/div&gt;" style="rounded=1;whiteSpace=wrap;html=1;" vertex="1" parent="EK5eT8r6OQ1-qDXLQgK1-3">
          <mxGeometry x="10" y="90" width="80" height="60" as="geometry" />
        </mxCell>
        <mxCell id="EK5eT8r6OQ1-qDXLQgK1-15" value="Log-out" style="rounded=1;whiteSpace=wrap;html=1;" vertex="1" parent="EK5eT8r6OQ1-qDXLQgK1-3">
          <mxGeometry x="10" y="740" width="80" height="80" as="geometry" />
        </mxCell>
        <mxCell id="EK5eT8r6OQ1-qDXLQgK1-39" value="" style="swimlane;startSize=0;fillColor=default;fillStyle=solid;" vertex="1" parent="1">
          <mxGeometry x="180" y="240" width="260" height="40" as="geometry" />
        </mxCell>
        <mxCell id="EK5eT8r6OQ1-qDXLQgK1-40" value="user@email.com" style="text;html=1;align=center;verticalAlign=middle;resizable=0;points=[];autosize=1;strokeColor=none;fillColor=none;" vertex="1" parent="EK5eT8r6OQ1-qDXLQgK1-39">
          <mxGeometry x="75" y="5" width="110" height="30" as="geometry" />
        </mxCell>
        <mxCell id="EK5eT8r6OQ1-qDXLQgK1-78" value="" style="sketch=0;outlineConnect=0;fontColor=#232F3E;gradientColor=none;strokeColor=#232F3E;fillColor=#ffffff;dashed=0;verticalLabelPosition=bottom;verticalAlign=top;align=center;html=1;fontSize=12;fontStyle=0;aspect=fixed;shape=mxgraph.aws4.resourceIcon;resIcon=mxgraph.aws4.user;" vertex="1" parent="EK5eT8r6OQ1-qDXLQgK1-39">
          <mxGeometry x="40" y="5" width="30" height="30" as="geometry" />
        </mxCell>
      </root>
    </mxGraphModel>
  </diagram>
</mxfile>
